[Header]
FileType HTR
DataType HTRS
FileVersion 1
NumSegments 64
NumFrames 4
DataFrameRate 24
EulerRotationOrder ZYX
CalibrationUnits mm
RotationUnits Degrees
GlobalAxisofGravity Y
BoneLengthAxis Y
ScaleFactor 1.0
[SegmentNames&Hierarchy]
Hips	GLOBAL
Spine	Hips
Spine1	Spine
Spine2	Spine1
Neck	Spine2
Head	Neck
LeftEye	Head
RightEye	Head
LeftShoulder	Spine2
LeftArm	LeftShoulder
LeftForeArm	LeftArm
LeftHand	LeftForeArm
LeftHandThumb1	LeftHand
LeftHandThumb2	LeftHandThumb1
LeftHandThumb3	LeftHandThumb2
LeftHandThumb4	LeftHandThumb3
LeftHandIndex1	LeftHand
LeftHandIndex2	LeftHandIndex1
LeftHandIndex3	LeftHandIndex2
LeftHandIndex4	LeftHandIndex3
LeftHandMiddle1	LeftHand
LeftHandMiddle2	LeftHandMiddle1
LeftHandMiddle3	LeftHandMiddle2
LeftHandMiddle4	LeftHandMiddle3
LeftHandRing1	LeftHand
LeftHandRing2	LeftHandRing1
LeftHandRing3	LeftHandRing2
LeftHandRing4	LeftHandRing3
LeftHandPinky1	LeftHand
LeftHandPinky2	LeftHandPinky1
LeftHandPinky3	LeftHandPinky2
LeftHandPinky4	LeftHandPinky3
RightShoulder	Spine2
RightArm	RightShoulder
RightForeArm	RightArm
RightHand	RightForeArm
RightHandPinky1	RightHand
RightHandPinky2	RightHandPinky1
RightHandPinky3	RightHandPinky2
RightHandPinky4	RightHandPinky3
RightHandRing1	RightHand
RightHandRing2	RightHandRing1
RightHandRing3	RightHandRing2
RightHandRing4	RightHandRing3
RightHandMiddle1	RightHand
RightHandMiddle2	RightHandMiddle1
RightHandMiddle3	RightHandMiddle2
RightHandMiddle4	RightHandMiddle3
RightHandIndex1	RightHand
RightHandIndex2	RightHandIndex1
RightHandIndex3	RightHandIndex2
RightHandIndex4	RightHandIndex3
RightHandThumb1	RightHand
RightHandThumb2	RightHandThumb1
RightHandThumb3	RightHandThumb2
RightHandThumb4	RightHandThumb3
LeftUpLeg	Hips
LeftLeg	LeftUpLeg
LeftFoot	LeftLeg
LeftToeBase	LeftFoot
RightUpLeg	Hips
RightLeg	RightUpLeg
RightFoot	RightLeg
RightToeBase	RightFoot
[BasePosition]
Hips	0	0	0	0	0	0	1
Spine	0	0	0	0	0	0	1
Spine1	0	0	0	0	0	0	1
Spine2	0	0	0	0	0	0	1
Neck	0	0	0	0	0	0	1
Head	0	0	0	0	0	0	1
LeftEye	0	0	0	0	0	0	1
RightEye	0	0	0	0	0	0	1
LeftShoulder	0	0	0	0	0	0	1
LeftArm	0	0	0	0	0	0	1
LeftForeArm	0	0	0	0	0	0	1
LeftHand	0	0	0	0	0	0	1
LeftHandThumb1	0	0	0	0	0	0	1
LeftHandThumb2	0	0	0	0	0	0	1
LeftHandThumb3	0	0	0	0	0	0	1
LeftHandThumb4	0	0	0	0	0	0	1
LeftHandIndex1	0	0	0	0	0	0	1
LeftHandIndex2	0	0	0	0	0	0	1
LeftHandIndex3	0	0	0	0	0	0	1
LeftHandIndex4	0	0	0	0	0	0	1
LeftHandMiddle1	0	0	0	0	0	0	1
LeftHandMiddle2	0	0	0	0	0	0	1
LeftHandMiddle3	0	0	0	0	0	0	1
LeftHandMiddle4	0	0	0	0	0	0	1
LeftHandRing1	0	0	0	0	0	0	1
LeftHandRing2	0	0	0	0	0	0	1
LeftHandRing3	0	0	0	0	0	0	1
LeftHandRing4	0	0	0	0	0	0	1
LeftHandPinky1	0	0	0	0	0	0	1
LeftHandPinky2	0	0	0	0	0	0	1
LeftHandPinky3	0	0	0	0	0	0	1
LeftHandPinky4	0	0	0	0	0	0	1
RightShoulder	0	0	0	0	0	0	1
RightArm	0	0	0	0	0	0	1
RightForeArm	0	0	0	0	0	0	1
RightHand	0	0	0	0	0	0	1
RightHandPinky1	0	0	0	0	0	0	1
RightHandPinky2	0	0	0	0	0	0	1
RightHandPinky3	0	0	0	0	0	0	1
RightHandPinky4	0	0	0	0	0	0	1
RightHandRing1	0	0	0	0	0	0	1
RightHandRing2	0	0	0	0	0	0	1
RightHandRing3	0	0	0	0	0	0	1
RightHandRing4	0	0	0	0	0	0	1
RightHandMiddle1	0	0	0	0	0	0	1
RightHandMiddle2	0	0	0	0	0	0	1
RightHandMiddle3	0	0	0	0	0	0	1
RightHandMiddle4	0	0	0	0	0	0	1
RightHandIndex1	0	0	0	0	0	0	1
RightHandIndex2	0	0	0	0	0	0	1
RightHandIndex3	0	0	0	0	0	0	1
RightHandIndex4	0	0	0	0	0	0	1
RightHandThumb1	0	0	0	0	0	0	1
RightHandThumb2	0	0	0	0	0	0	1
RightHandThumb3	0	0	0	0	0	0	1
RightHandThumb4	0	0	0	0	0	0	1
LeftUpLeg	0	0	0	0	0	0	1
LeftLeg	0	0	0	0	0	0	1
LeftFoot	0	0	0	0	0	0	1
LeftToeBase	0	0	0	0	0	0	1
RightUpLeg	0	0	0	0	0	0	1
RightLeg	0	0	0	0	0	0	1
RightFoot	0	0	0	0	0	0	1
RightToeBase	0	0	0	0	0	0	1
[Hips]
1	4.848590851	1016.296082	15.55450439	-1.037826419	1.488177896	-5.412373066	1.0
2	5.00593853	1016.324951	15.88618469	-1.032996178	1.496747732	-5.422653198	1.0
3	5.162722588	1016.35437	16.21940994	-1.028106809	1.505541563	-5.432767391	1.0
4	5.319507122	1016.383789	16.55263519	-1.023217201	1.514335275	-5.442881584	1.0
[Spine]
1	0	101.8159943	1.315000057	1.233446121	-1.265388608	3.017094851	1.0
2	0	101.8159943	1.315000057	1.224449515	-1.264328003	3.008076191	1.0
3	0	101.8159943	1.315000057	1.215402484	-1.263124466	2.998869181	1.0
4	0	101.8159943	1.315000057	1.206355572	-1.261920929	2.98966217	1.0
[Spine1]
1	0	100.8349991	-10.00800037	0.7521907687	0.1872795373	5.947595596	1.0
2	0	100.8349991	-10.00800037	0.7401166558	0.1877328455	5.947906971	1.0
3	0	100.8349991	-10.00800037	0.7281618118	0.1882431954	5.948289871	1.0
4	0	100.8349991	-10.00800037	0.7162069678	0.1887535304	5.948673248	1.0
[Spine2]
1	0	91	-13.73399925	0.7868227363	0.7048845291	5.861683846	1.0
2	0	91	-13.73399925	0.7747192383	0.7060986757	5.861904144	1.0
3	0	91	-13.73399925	0.7627362013	0.7073526382	5.862197399	1.0
4	0	91	-13.73399925	0.7507532835	0.7086065412	5.862490654	1.0
[Neck]
1	0	166.7169952	-25.16200066	1.056080461	-0.2649561167	-2.169207096	1.0
2	0	166.7169952	-25.16200066	1.060474277	-0.2590074837	-2.16803956	1.0
3	0	166.7169952	-25.16200066	1.064769745	-0.2530435622	-2.166753531	1.0
4	0	166.7169952	-25.16200066	1.069065452	-0.2470796406	-2.165467262	1.0
[Head]
1	0	96.17900085	16.84999847	1.492063284	0.762910068	-8.123052597	1.0
2	0	96.17900085	16.84999847	1.473476529	0.7973733544	-8.136491776	1.0
3	0	96.17900085	16.84999847	1.454515457	0.8322535157	-8.150052071	1.0
4	0	96.17900085	16.84999847	1.435554266	0.8671336174	-8.163612366	1.0
[LeftEye]
1	30.6760006	64.09500122	92.83599854	0	0	0	1.0
2	30.6760006	64.09500122	92.83599854	0	0	0	1.0
3	30.6760006	64.09500122	92.83599854	0	0	0	1.0
4	30.6760006	64.09500122	92.83599854	0	0	0	1.0
[RightEye]
1	-30.6760006	64.09500122	92.83499908	0	0	0	1.0
2	-30.6760006	64.09500122	92.83499908	0	0	0	1.0
3	-30.6760006	64.09500122	92.83499908	0	0	0	1.0
4	-30.6760006	64.09500122	92.83499908	0	0	0	1.0
[LeftShoulder]
1	45.70400238	109.4599991	-26.28000069	4.900876999	-13.35861683	-6.051225185	1.0
2	45.70400238	109.4599991	-26.28000069	4.897140026	-13.32855511	-5.97034359	1.0
3	45.70400238	109.4599991	-26.28000069	4.893380642	-13.29776573	-5.890604019	1.0
4	45.70400238	109.4599991	-26.28000069	4.889620781	-13.26697731	-5.810864925	1.0
[LeftArm]
1	105.923996	-5.24600029	-22.32099915	-3.048749924	4.395025253	-83.67137909	1.0
2	105.923996	-5.24600029	-22.32099915	-3.064110756	4.396000385	-83.7494812	1.0
3	105.923996	-5.24600029	-22.32099915	-3.079538345	4.396883965	-83.82627869	1.0
4	105.923996	-5.24600029	-22.32099915	-3.094966173	4.397767067	-83.90306091	1.0
[LeftForeArm]
1	278.414978	-0.0009999999311	0	-8.146161576e-07	-14.50675297	-0.0002103592124	1.0
2	278.414978	-0.0009999999311	0	3.673548576e-08	-14.51032543	-0.0002122717124	1.0
3	278.414978	-0.0009999999311	0	9.472132092e-07	-14.51396751	-0.0002143401362	1.0
4	278.414978	-0.0009999999311	0	1.857691132e-06	-14.51760864	-0.0002164085599	1.0
[LeftHand]
1	283.2879944	0	0	-27.77377701	-1.110126972	-10.05002022	1.0
2	283.2879944	0	0	-27.78995895	-1.114484787	-10.07430458	1.0
3	283.2879944	0	0	-27.80636024	-1.118698478	-10.09880161	1.0
4	283.2879944	0	0	-27.82276154	-1.122912169	-10.12329865	1.0
[LeftHandThumb1]
1	24.6609993	-15.75	26.8239994	18.09016228	-3.88074398	10.2308073	1.0
2	24.6609993	-15.75	26.8239994	18.08419037	-3.89468503	10.22053909	1.0
3	24.6609993	-15.75	26.8239994	18.07836723	-3.908268213	10.21053314	1.0
4	24.6609993	-15.75	26.8239994	18.07254601	-3.921851635	10.20052814	1.0
[LeftHandThumb2]
1	32.29800034	-18.64699936	18.64699936	-0.4590577185	32.7769165	-2.855185509	1.0
2	32.29800034	-18.64699936	18.64699936	-0.4659051597	32.75931549	-2.859064341	1.0
3	32.29800034	-18.64699936	18.64699936	-0.4725770354	32.74216461	-2.862842798	1.0
4	32.29800034	-18.64699936	18.64699936	-0.4792488813	32.72500992	-2.866621017	1.0
[LeftHandThumb3]
1	26.52600098	-15.31499958	15.31499958	2.087846994	9.317584038	-0.01894638687	1.0
2	26.52600098	-15.31499958	15.31499958	2.083042145	9.300048828	-0.02333607525	1.0
3	26.52600098	-15.31499958	15.31499958	2.078360558	9.282962799	-0.02761417069	1.0
4	26.52600098	-15.31499958	15.31499958	2.073678732	9.265877724	-0.0318922624	1.0
[LeftHandThumb4]
1	19.54599953	-11.28499985	11.28499985	0	0	0	1.0
2	19.54599953	-11.28499985	11.28499985	0	0	0	1.0
3	19.54599953	-11.28499985	11.28499985	0	0	0	1.0
4	19.54599953	-11.28499985	11.28499985	0	0	0	1.0
[LeftHandIndex1]
1	91.09299469	-5.170999527	22.60099792	-0.3012978733	4.670435429	-7.844818115	1.0
2	91.09299469	-5.170999527	22.60099792	-0.3018118441	4.671037197	-7.851119518	1.0
3	91.09299469	-5.170999527	22.60099792	-0.3023127019	4.67162323	-7.85725975	1.0
4	91.09299469	-5.170999527	22.60099792	-0.3028136194	4.67220974	-7.863399506	1.0
[LeftHandIndex2]
1	36.76399994	0	0	-0.628235817	2.770453453	-20.57311249	1.0
2	36.76399994	0	0	-0.6285411119	2.771016121	-20.57941055	1.0
3	36.76399994	0	0	-0.6288386583	2.771564484	-20.58554459	1.0
4	36.76399994	0	0	-0.6291361451	2.772112846	-20.59167862	1.0
[LeftHandIndex3]
1	28.83100128	0	0	-0.1097429916	0.8055554032	-10.17071247	1.0
2	28.83100128	0	0	-0.1098542958	0.806176722	-10.17698669	1.0
3	28.83100128	0	0	-0.1099626869	0.8067821264	-10.18310165	1.0
4	28.83100128	0	0	-0.110071063	0.8073874712	-10.18921471	1.0
[LeftHandIndex4]
1	23.92700005	0	0	0	0	0	1.0
2	23.92700005	0	0	0	0	0	1.0
3	23.92700005	0	0	0	0	0	1.0
4	23.92700005	0	0	0	0	0	1.0
[LeftHandMiddle1]
1	95.33399963	0	0	-1.521745563	8.677752495	-15.88116455	1.0
2	95.33399963	0	0	-1.522511721	8.678211212	-15.8875246	1.0
3	95.33399963	0	0	-1.52325809	8.678657532	-15.89372253	1.0
4	95.33399963	0	0	-1.524004579	8.679103851	-15.89991951	1.0
[LeftHandMiddle2]
1	36.98199844	0	0	-1.426888466	3.823397636	-33.41779327	1.0
2	36.98199844	0	0	-1.427322268	3.823866844	-33.42410278	1.0
3	36.98199844	0	0	-1.427745104	3.824323893	-33.43025589	1.0
4	36.98199844	0	0	-1.42816782	3.824780941	-33.43640518	1.0
[LeftHandMiddle3]
1	29.50900078	0	0	-0.1490266174	1.485644221	-12.26480198	1.0
2	29.50900078	0	0	-0.1491706073	1.486252308	-12.27108288	1.0
3	29.50900078	0	0	-0.1493107378	1.48684454	-12.27720356	1.0
4	29.50900078	0	0	-0.1494508833	1.487436771	-12.28332329	1.0
[LeftHandMiddle4]
1	28.3390007	0	0	0	0	0	1.0
2	28.3390007	0	0	0	0	0	1.0
3	28.3390007	0	0	0	0	0	1.0
4	28.3390007	0	0	0	0	0	1.0
[LeftHandRing1]
1	91.04499817	-0.4390000105	-18.65100098	-3.023374081	11.54989243	-26.95900154	1.0
2	91.04499817	-0.4390000105	-18.65100098	-3.020876646	11.54873848	-26.94021988	1.0
3	91.04499817	-0.4390000105	-18.65100098	-3.018443346	11.54761505	-26.92191887	1.0
4	91.04499817	-0.4390000105	-18.65100098	-3.016009808	11.54649067	-26.90361977	1.0
[LeftHandRing2]
1	31.54000092	0	0	-1.19748652	4.055521011	-40.20161819	1.0
2	31.54000092	0	0	-1.196354628	4.054072857	-40.18303299	1.0
3	31.54000092	0	0	-1.195251465	4.052662373	-40.16492844	1.0
4	31.54000092	0	0	-1.194148302	4.051251888	-40.14682007	1.0
[LeftHandRing3]
1	29.37700081	0	0	-0.09223304689	1.903372645	-19.33780289	1.0
2	29.37700081	0	0	-0.09180012345	1.901589394	-19.31935501	1.0
3	29.37700081	0	0	-0.09137811512	1.899851799	-19.30138016	1.0
4	29.37700081	0	0	-0.09095610678	1.898114324	-19.2834053	1.0
[LeftHandRing4]
1	26.47500038	0	0	0	0	0	1.0
2	26.47500038	0	0	0	0	0	1.0
3	26.47500038	0	0	0	0	0	1.0
4	26.47500038	0	0	0	0	0	1.0
[LeftHandPinky1]
1	80.77799988	-4.887000084	-38.06099701	-5.222199917	16.12825203	-36.90261841	1.0
2	80.77799988	-4.887000084	-38.06099701	-5.216832638	16.12798309	-36.88333893	1.0
3	80.77799988	-4.887000084	-38.06099701	-5.211602688	16.12771797	-36.86455536	1.0
4	80.77799988	-4.887000084	-38.06099701	-5.206373215	16.12745476	-36.84577179	1.0
[LeftHandPinky2]
1	36	0	0	-1.945601702	3.817505121	-45.66318512	1.0
2	36	0	0	-1.944211721	3.816288471	-45.64466095	1.0
3	36	0	0	-1.942857742	3.815103769	-45.62661743	1.0
4	36	0	0	-1.941503644	3.813918352	-45.60856628	1.0
[LeftHandPinky3]
1	21.14200211	0	0	-0.5433540344	2.833765507	-20.52733612	1.0
2	21.14200211	0	0	-0.5425609946	2.832093954	-20.50886536	1.0
3	21.14200211	0	0	-0.5417882204	2.830465555	-20.49087334	1.0
4	21.14200211	0	0	-0.5410155058	2.828836679	-20.4728775	1.0
[LeftHandPinky4]
1	19.75699997	0	0	0	0	0	1.0
2	19.75699997	0	0	0	0	0	1.0
3	19.75699997	0	0	0	0	0	1.0
4	19.75699997	0	0	0	0	0	1.0
[RightShoulder]
1	-45.70000076	109.4620056	-26.28000069	4.810459614	2.868921518	5.722985744	1.0
2	-45.70000076	109.4620056	-26.28000069	4.82242012	2.86867094	5.699464798	1.0
3	-45.70000076	109.4620056	-26.28000069	4.834154129	2.868400335	5.678206444	1.0
4	-45.70000076	109.4620056	-26.28000069	4.845888138	2.86812973	5.656947613	1.0
[RightArm]
1	-105.9280014	-5.248000145	-22.32099915	0.1354198307	1.378134608	67.34007263	1.0
2	-105.9280014	-5.248000145	-22.32099915	0.1365020126	1.381324887	67.36984253	1.0
3	-105.9280014	-5.248000145	-22.32099915	0.1379718632	1.38477397	67.3970108	1.0
4	-105.9280014	-5.248000145	-22.32099915	0.1394416988	1.388222933	67.42417145	1.0
[RightForeArm]
1	-278.414978	0	0	-5.669738584e-06	17.7365818	-9.024563951e-06	1.0
2	-278.414978	0	0	-5.110029178e-06	17.73283958	-8.494460417e-06	1.0
3	-278.414978	0	0	-4.544045623e-06	17.72895241	-7.715959327e-06	1.0
4	-278.414978	0	0	-3.978062068e-06	17.72506714	-6.937457329e-06	1.0
[RightHand]
1	-283.2879944	0	0.0009999999311	-12.68406868	-6.830768585	11.79686642	1.0
2	-283.2879944	0	0.0009999999311	-12.70415115	-6.83759737	11.80511284	1.0
3	-283.2879944	0	0.0009999999311	-12.72478485	-6.844683647	11.81351376	1.0
4	-283.2879944	0	0.0009999999311	-12.74541855	-6.851769447	11.82191372	1.0
[RightHandPinky1]
1	-80.76699829	-4.885000229	-38.06000137	-5.222109318	-16.12935829	36.9029808	1.0
2	-80.76699829	-4.885000229	-38.06000137	-5.216740608	-16.12908554	36.8836937	1.0
3	-80.76699829	-4.885000229	-38.06000137	-5.211509228	-16.12882233	36.86489868	1.0
4	-80.76699829	-4.885000229	-38.06000137	-5.206278324	-16.1285553	36.84609985	1.0
[RightHandPinky2]
1	-36	0	0.0009999999311	-1.94421649	-3.815821886	45.66313934	1.0
2	-36	0	0.0009999999311	-1.942827106	-3.814604998	45.64461899	1.0
3	-36	0	0.0009999999311	-1.941473246	-3.813419104	45.62657166	1.0
4	-36	0	0.0009999999311	-1.940119386	-3.812233686	45.60852814	1.0
[RightHandPinky3]
1	-21.14200211	0	0	-0.7654331326	0.05477980897	22.12399864	1.0
2	-21.14200211	0	0	-0.7645943165	0.05642723292	22.10556793	1.0
3	-21.14200211	0	0	-0.7637768984	0.05803231895	22.08760643	1.0
4	-21.14200211	0	0	-0.7629594803	0.0596374087	22.06964684	1.0
[RightHandPinky4]
1	-19.75699997	0	0	0	0	0	1.0
2	-19.75699997	0	0	0	0	0	1.0
3	-19.75699997	0	0	0	0	0	1.0
4	-19.75699997	0	0	0	0	0	1.0
[RightHandRing1]
1	-91.03599548	-0.4390000105	-18.65100098	-3.023299456	-11.54952812	26.95914459	1.0
2	-91.03599548	-0.4390000105	-18.65100098	-3.020800591	-11.54837513	26.94035912	1.0
3	-91.03599548	-0.4390000105	-18.65100098	-3.018366098	-11.54725075	26.92205048	1.0
4	-91.03599548	-0.4390000105	-18.65100098	-3.015931368	-11.54612732	26.90374374	1.0
[RightHandRing2]
1	-31.54000092	0	0	-1.197299719	-4.055003643	40.20166016	1.0
2	-31.54000092	0	0	-1.196167588	-4.053554535	40.18307495	1.0
3	-31.54000092	0	0	-1.195064306	-4.052143097	40.16496658	1.0
4	-31.54000092	0	0	-1.193961143	-4.050731659	40.14685822	1.0
[RightHandRing3]
1	-29.37700081	0	0	-0.1383084655	0.09006346017	17.81515884	1.0
2	-29.37700081	0	0	-0.137923196	0.09185828269	17.79672623	1.0
3	-29.37700081	0	0	-0.1375476122	0.09360705316	17.77876663	1.0
4	-29.37700081	0	0	-0.1371720135	0.09535583109	17.76080513	1.0
[RightHandRing4]
1	-26.47500038	0	0	0	0	0	1.0
2	-26.47500038	0	0	0	0	0	1.0
3	-26.47500038	0	0	0	0	0	1.0
4	-26.47500038	0	0	0	0	0	1.0
[RightHandMiddle1]
1	-95.32500458	0	0	-1.521728039	-8.677535057	15.88131428	1.0
2	-95.32500458	0	0	-1.522493362	-8.677993774	15.88766766	1.0
3	-95.32500458	0	0	-1.523239136	-8.678440094	15.893857	1.0
4	-95.32500458	0	0	-1.523985028	-8.678886414	15.90004826	1.0
[RightHandMiddle2]
1	-36.98199844	0	0	-1.426759601	-3.822958946	33.41783142	1.0
2	-36.98199844	0	0	-1.427192807	-3.823427439	33.42414856	1.0
3	-36.98199844	0	0	-1.427615166	-3.82388401	33.43030548	1.0
4	-36.98199844	0	0	-1.428037286	-3.82434082	33.4364624	1.0
[RightHandMiddle3]
1	-29.50900078	0	0	-0.2534597516	-1.678246737	15.89936829	1.0
2	-29.50900078	0	0	-0.2536427379	-1.678843975	15.90565109	1.0
3	-29.50900078	0	0	-0.2538210154	-1.679425955	15.91177177	1.0
4	-29.50900078	0	0	-0.2539992929	-1.680007935	15.91789341	1.0
[RightHandMiddle4]
1	-28.3390007	0	0.0009999999311	0	0	0	1.0
2	-28.3390007	0	0.0009999999311	0	0	0	1.0
3	-28.3390007	0	0.0009999999311	0	0	0	1.0
4	-28.3390007	0	0.0009999999311	0	0	0	1.0
[RightHandIndex1]
1	-91.08300018	-5.167999744	22.60099792	-0.301292181	-4.670323849	7.844889641	1.0
2	-91.08300018	-5.167999744	22.60099792	-0.3018054068	-4.67092514	7.851183414	1.0
3	-91.08300018	-5.167999744	22.60099792	-0.302305311	-4.671511173	7.857314587	1.0
4	-91.08300018	-5.167999744	22.60099792	-0.3028052449	-4.672097206	7.863445282	1.0
[RightHandIndex2]
1	-36.76399994	0	0	-0.6281926632	-2.770177603	20.5731945	1.0
2	-36.76399994	0	0	-0.6284966469	-2.770739555	20.5794754	1.0
3	-36.76399994	0	0	-0.6287928224	-2.771286964	20.58559799	1.0
4	-36.76399994	0	0	-0.6290890574	-2.771834612	20.59171867	1.0
[RightHandIndex3]
1	-28.83100128	0	0	-0.2385089695	-0.1574734151	13.84472561	1.0
2	-28.83100128	0	0	-0.2386602759	-0.1580865234	13.85100651	1.0
3	-28.83100128	0	0	-0.2388076931	-0.1586839706	13.85712624	1.0
4	-28.83100128	0	0	-0.2389551103	-0.1592814326	13.86324692	1.0
[RightHandIndex4]
1	-23.92700005	0	0	0	0	0	1.0
2	-23.92700005	0	0	0	0	0	1.0
3	-23.92700005	0	0	0	0	0	1.0
4	-23.92700005	0	0	0	0	0	1.0
[RightHandThumb1]
1	-24.64799881	-15.72700024	26.82600021	18.08984375	3.88094759	-10.23103142	1.0
2	-24.64799881	-15.72700024	26.82600021	18.08386993	3.894890547	-10.22076797	1.0
3	-24.64799881	-15.72700024	26.82600021	18.0780468	3.908475876	-10.2107687	1.0
4	-24.64799881	-15.72700024	26.82600021	18.07222557	3.922061443	-10.20076942	1.0
[RightHandThumb2]
1	-32.29800034	-18.64699936	18.64699936	-0.4597997069	-32.77558899	2.856959343	1.0
2	-32.29800034	-18.64699936	18.64699936	-0.4666509032	-32.75798798	2.860844374	1.0
3	-32.29800034	-18.64699936	18.64699936	-0.4733268023	-32.7408371	2.864629745	1.0
4	-32.29800034	-18.64699936	18.64699936	-0.4800027013	-32.72369003	2.868415356	1.0
[RightHandThumb3]
1	-26.52600098	-15.31399918	15.31399918	1.86625421	-8.463823318	0.8300197124	1.0
2	-26.52600098	-15.31399918	15.31399918	1.861712575	-8.446224213	0.8342991471	1.0
3	-26.52600098	-15.31399918	15.31399918	1.857287407	-8.429076195	0.8384696841	1.0
4	-26.52600098	-15.31399918	15.31399918	1.852862239	-8.411929131	0.8426402211	1.0
[RightHandThumb4]
1	-19.54599953	-11.28499985	11.28499985	0	0	0	1.0
2	-19.54599953	-11.28499985	11.28499985	0	0	0	1.0
3	-19.54599953	-11.28499985	11.28499985	0	0	0	1.0
4	-19.54599953	-11.28499985	11.28499985	0	0	0	1.0
[LeftUpLeg]
1	82.07800293	-67.51699829	-15.99599934	-17.51352882	15.18564701	12.08637428	1.0
2	82.07800293	-67.51699829	-15.99599934	-17.51317787	15.18043709	12.08878517	1.0
3	82.07800293	-67.51699829	-15.99599934	-17.51262665	15.17514324	12.09108448	1.0
4	82.07800293	-67.51699829	-15.99599934	-17.51207733	15.1698494	12.0933857	1.0
[LeftLeg]
1	0	-443.7049866	2.845999956	25.0531292	7.625391006	6.097391605	1.0
2	0	-443.7049866	2.845999956	25.0768013	7.621356487	6.104929447	1.0
3	0	-443.7049866	2.845999956	25.10006332	7.617393017	6.112309456	1.0
4	0	-443.7049866	2.845999956	25.12332344	7.613430023	6.119689465	1.0
[LeftFoot]
1	0	-444.2789917	-29.8219986	-4.117842197	2.825612068	-11.23660755	1.0
2	0	-444.2789917	-29.8219986	-4.13335371	2.816401958	-11.2321043	1.0
3	0	-444.2789917	-29.8219986	-4.148769855	2.807095289	-11.22748661	1.0
4	0	-444.2789917	-29.8219986	-4.164186478	2.797789097	-11.22286701	1.0
[LeftToeBase]
1	0	-87.28699493	107.1060028	-0.4734937251	-2.34485633e-05	-3.46325487e-06	1.0
2	0	-87.28699493	107.1060028	-0.474398613	-2.203682561e-05	-2.806116754e-06	1.0
3	0	-87.28699493	107.1060028	-0.4751395285	-2.150279033e-05	-2.055839559e-06	1.0
4	0	-87.28699493	107.1060028	-0.4758804142	-2.096875323e-05	-1.305562705e-06	1.0
[RightUpLeg]
1	-82.07800293	-67.51699829	-15.99599934	-2.103255033	-4.593173027	10.98488712	1.0
2	-82.07800293	-67.51699829	-15.99599934	-2.063040495	-4.593260765	10.98593998	1.0
3	-82.07800293	-67.51699829	-15.99599934	-2.022552013	-4.593553066	10.98674583	1.0
4	-82.07800293	-67.51699829	-15.99599934	-1.982063293	-4.593845367	10.98755264	1.0
[RightLeg]
1	0	-443.7049866	2.861999989	11.70519066	-5.6574893	2.152250528	1.0
2	0	-443.7049866	2.861999989	11.65566635	-5.651679039	2.155304432	1.0
3	0	-443.7049866	2.861999989	11.60565948	-5.645529747	2.158640146	1.0
4	0	-443.7049866	2.861999989	11.55565071	-5.639379978	2.161976337	1.0
[RightFoot]
1	0	-444.2770081	-29.83799934	-9.830486298	-0.3523079455	-8.050157547	1.0
2	0	-444.2770081	-29.83799934	-9.825230598	-0.3510485888	-8.038988113	1.0
3	0	-444.2770081	-29.83799934	-9.819824219	-0.3497953415	-8.02796936	1.0
4	0	-444.2770081	-29.83799934	-9.814418793	-0.3485421538	-8.016949654	1.0
[RightToeBase]
1	0	-87.28699493	107.1060028	-0.5863000751	-1.394211267e-05	1.560707688e-06	1.0
2	0	-87.28699493	107.1060028	-0.5949788094	-1.049457387e-05	1.847407816e-06	1.0
3	0	-87.28699493	107.1060028	-0.6036713123	-6.786739959e-06	2.214839242e-06	1.0
4	0	-87.28699493	107.1060028	-0.6123636961	-3.078906047e-06	2.582270554e-06	1.0
[EndOfFile]
